<?xml version="1.0" encoding="UTF-8" standalone="no"?>
<svg width="32px" height="20px" viewBox="0 0 32 20" version="1.1" xmlns="http://www.w3.org/2000/svg" xmlns:xlink="http://www.w3.org/1999/xlink" xmlns:sketch="http://www.bohemiancoding.com/sketch/ns">
    <!-- Generator: Sketch 3.3.3 (12081) - http://www.bohemiancoding.com/sketch -->
    <title>Rectangle 326 + Rectangle 11 + Rectangle 11 Copy 25</title>
    <desc>Created with Sketch.</desc>
    <defs>
        <filter x="-50%" y="-50%" width="200%" height="200%" filterUnits="objectBoundingBox" id="filter-1">
            <feOffset dx="0" dy="1" in="SourceAlpha" result="shadowOffsetOuter1"></feOffset>
            <feGaussianBlur stdDeviation="0.5" in="shadowOffsetOuter1" result="shadowBlurOuter1"></feGaussianBlur>
            <feColorMatrix values="0 0 0 0 1   0 0 0 0 1   0 0 0 0 1  0 0 0 0.7 0" in="shadowBlurOuter1" type="matrix" result="shadowMatrixOuter1"></feColorMatrix>
            <feMerge>
                <feMergeNode in="shadowMatrixOuter1"></feMergeNode>
                <feMergeNode in="SourceGraphic"></feMergeNode>
            </feMerge>
        </filter>
        <filter x="-50%" y="-50%" width="200%" height="200%" filterUnits="objectBoundingBox" id="filter-2">
            <feOffset dx="0" dy="-1" in="SourceAlpha" result="shadowOffsetOuter1"></feOffset>
            <feGaussianBlur stdDeviation="0.5" in="shadowOffsetOuter1" result="shadowBlurOuter1"></feGaussianBlur>
            <feColorMatrix values="0 0 0 0 1   0 0 0 0 1   0 0 0 0 1  0 0 0 0.7 0" in="shadowBlurOuter1" type="matrix" result="shadowMatrixOuter1"></feColorMatrix>
            <feMerge>
                <feMergeNode in="shadowMatrixOuter1"></feMergeNode>
                <feMergeNode in="SourceGraphic"></feMergeNode>
            </feMerge>
        </filter>
    </defs>
    <g id="Page-1" stroke="none" stroke-width="1" fill="none" fill-rule="evenodd" sketch:type="MSPage">
        <g id="Artboard-1-Copy-9" sketch:type="MSArtboardGroup" transform="translate(-984.000000, -823.000000)" fill="#71797F">
            <g id="Rectangle-326-+-Rectangle-11-+-Rectangle-11-Copy-25" sketch:type="MSLayerGroup" transform="translate(985.000000, 823.000000)">
                <path d="M7.61538462,1.51018354 L7.61538462,0.694592055 C7.61538462,0.310979456 7.92232143,0 8.31417847,0 L9.68582153,0 C10.0717547,0 10.3846154,0.312423706 10.3846154,0.694592055 L10.3846154,1.51018354 C10.783545,1.58346109 11.1715978,1.68782615 11.5461695,1.82067432 L11.9535919,1.11499804 C12.1453982,0.782779782 12.566703,0.666932081 12.9060611,0.862860599 L14.0939389,1.54868213 C14.4281668,1.74164873 14.5429002,2.16864592 14.3518161,2.49961342 L13.9434122,3.20698972 C14.2483764,3.46747696 14.532523,3.75162359 14.7930103,4.05658782 L15.5003866,3.64818393 C15.8326048,3.45637763 16.2553893,3.56670298 16.4513179,3.90606113 L17.1371394,5.09393887 C17.330106,5.42816681 17.2159695,5.85532395 16.885002,6.04640813 L16.1793257,6.45383051 C16.3121738,6.82840216 16.4165389,7.216455 16.4898165,7.61538462 L17.3054079,7.61538462 C17.6890205,7.61538462 18,7.92232143 18,8.31417847 L18,9.68582153 C18,10.0717547 17.6875763,10.3846154 17.3054079,10.3846154 L16.4898165,10.3846154 C16.4165389,10.783545 16.3121738,11.1715978 16.1793257,11.5461695 L16.885002,11.9535919 C17.2172202,12.1453982 17.3330679,12.566703 17.1371394,12.9060611 L16.4513179,14.0939389 C16.2583513,14.4281668 15.8313541,14.5429002 15.5003866,14.3518161 L14.7930103,13.9434122 C14.532523,14.2483764 14.2483764,14.532523 13.9434122,14.7930103 L14.3518161,15.5003866 C14.5436224,15.8326048 14.433297,16.2553893 14.0939389,16.4513179 L12.9060611,17.1371394 C12.5718332,17.330106 12.144676,17.2159695 11.9535919,16.885002 L11.5461695,16.1793257 C11.1715978,16.3121738 10.783545,16.4165389 10.3846154,16.4898165 L10.3846154,17.3054079 C10.3846154,17.6890205 10.0776786,18 9.68582153,18 L8.31417847,18 C7.92824528,18 7.61538462,17.6875763 7.61538462,17.3054079 L7.61538462,16.4898165 C7.216455,16.4165389 6.82840216,16.3121738 6.45383051,16.1793257 L6.04640813,16.885002 C5.85460183,17.2172202 5.43329702,17.3330679 5.09393887,17.1371394 L3.90606113,16.4513179 C3.57183319,16.2583513 3.45709976,15.8313541 3.64818393,15.5003866 L4.05658782,14.7930103 C3.75162359,14.532523 3.46747696,14.2483764 3.20698972,13.9434122 L2.49961342,14.3518161 C2.16739517,14.5436224 1.74461065,14.433297 1.54868213,14.0939389 L0.862860599,12.9060611 C0.669894006,12.5718332 0.78403054,12.144676 1.11499804,11.9535919 L1.82067432,11.5461695 C1.68782615,11.1715978 1.58346109,10.783545 1.51018354,10.3846154 L0.694592055,10.3846154 C0.310979456,10.3846154 0,10.0776786 0,9.68582153 L0,8.31417847 C0,7.92824528 0.312423706,7.61538462 0.694592055,7.61538462 L1.51018354,7.61538462 C1.58346109,7.216455 1.68782615,6.82840216 1.82067432,6.45383051 L1.11499804,6.04640813 C0.782779782,5.85460183 0.666932081,5.43329702 0.862860599,5.09393887 L1.54868213,3.90606113 C1.74164873,3.57183319 2.16864592,3.45709976 2.49961342,3.64818393 L3.20698972,4.05658782 C3.46747696,3.75162359 3.75162359,3.46747696 4.05658782,3.20698972 L3.64818393,2.49961342 C3.45637763,2.16739517 3.56670298,1.74461065 3.90606113,1.54868213 L5.09393887,0.862860599 C5.42816681,0.669894006 5.85532395,0.78403054 6.04640813,1.11499804 L6.45383051,1.82067432 C6.82840216,1.68782615 7.216455,1.58346109 7.61538462,1.51018354 L7.61538462,1.51018354 Z M9,15 C12.3137085,15 15,12.3137085 15,9 C15,5.6862915 12.3137085,3 9,3 C5.6862915,3 3,5.6862915 3,9 C3,12.3137085 5.6862915,15 9,15 Z M9,13 C11.209139,13 13,11.209139 13,9 C13,6.790861 11.209139,5 9,5 C6.790861,5 5,6.790861 5,9 C5,11.209139 6.790861,13 9,13 Z M9,11 C10.1045695,11 11,10.1045695 11,9 C11,7.8954305 10.1045695,7 9,7 C7.8954305,7 7,7.8954305 7,9 C7,10.1045695 7.8954305,11 9,11 L9,11 Z" id="Rectangle-326" filter="url(#filter-1)" sketch:type="MSShapeGroup"></path>
                <g id="Rectangle-11-+-Rectangle-11-Copy-25" transform="translate(21.000000, 6.000000)" filter="url(#filter-2)" sketch:type="MSShapeGroup">
                    <path d="M4.5,0.586761547 C4.21790313,0.56169218 3.92862274,0.657163697 3.71362774,0.872158696 L0.872158696,3.71362774 C0.490460483,4.09532595 0.488155365,4.73079605 0.878679656,5.12132034 C1.27192661,5.5145673 1.89944939,5.51476417 2.28637226,5.1278413 L4.5,2.91421356 L6.71362774,5.1278413 C7.10055061,5.51476417 7.72807339,5.5145673 8.12132034,5.12132034 C8.51184464,4.73079605 8.50953952,4.09532595 8.1278413,3.71362774 L5.28637226,0.872158696 C5.07137726,0.657163697 4.78209687,0.56169218 4.5,0.586761547 Z" id="Rectangle-11-Copy-2" transform="translate(4.500000, 3.000000) scale(1, -1) translate(-4.500000, -3.000000) "></path>
                </g>
            </g>
        </g>
    </g>
</svg>