<?xml version="1.0" encoding="UTF-8" standalone="no"?>
<svg width="12px" height="12px" viewBox="0 0 12 12" version="1.1" xmlns="http://www.w3.org/2000/svg" xmlns:xlink="http://www.w3.org/1999/xlink" xmlns:sketch="http://www.bohemiancoding.com/sketch/ns">
    <!-- Generator: Sketch 3.3.3 (12081) - http://www.bohemiancoding.com/sketch -->
    <title>Rectangle 15 Copy 2</title>
    <desc>Created with Sketch.</desc>
    <defs></defs>
    <g id="Page-1" stroke="none" stroke-width="1" fill="none" fill-rule="evenodd" sketch:type="MSPage">
        <g id="Artboard-1-Copy-9" sketch:type="MSArtboardGroup" transform="translate(-1295.000000, -825.000000)" fill="#71787F">
            <path d="M1302,830 L1302,826.002473 C1302,825.455761 1301.55228,825 1301,825 C1300.44386,825 1300,825.448823 1300,826.002473 L1300,830 L1296.00247,830 C1295.45576,830 1295,830.447715 1295,831 C1295,831.556135 1295.44882,832 1296.00247,832 L1300,832 L1300,835.997527 C1300,836.544239 1300.44772,837 1301,837 C1301.55614,837 1302,836.551177 1302,835.997527 L1302,832 L1305.99753,832 C1306.54424,832 1307,831.552285 1307,831 C1307,830.443865 1306.55118,830 1305.99753,830 L1302,830 Z" id="Rectangle-15-Copy-2" sketch:type="MSShapeGroup"></path>
        </g>
    </g>
</svg>