<?xml version="1.0" encoding="UTF-8" standalone="no"?>
<svg width="14px" height="14px" viewBox="0 0 14 14" version="1.1" xmlns="http://www.w3.org/2000/svg" xmlns:xlink="http://www.w3.org/1999/xlink" xmlns:sketch="http://www.bohemiancoding.com/sketch/ns">
    <!-- Generator: Sketch 3.3.3 (12081) - http://www.bohemiancoding.com/sketch -->
    <title>Rectangle 317 Copy 2</title>
    <desc>Created with Sketch.</desc>
    <defs>
        <filter x="-50%" y="-50%" width="200%" height="200%" filterUnits="objectBoundingBox" id="filter-1">
            <feOffset dx="0" dy="1" in="SourceAlpha" result="shadowOffsetOuter1"></feOffset>
            <feGaussianBlur stdDeviation="0.5" in="shadowOffsetOuter1" result="shadowBlurOuter1"></feGaussianBlur>
            <feColorMatrix values="0 0 0 0 1   0 0 0 0 1   0 0 0 0 1  0 0 0 0.7 0" in="shadowBlurOuter1" type="matrix" result="shadowMatrixOuter1"></feColorMatrix>
            <feMerge>
                <feMergeNode in="shadowMatrixOuter1"></feMergeNode>
                <feMergeNode in="SourceGraphic"></feMergeNode>
            </feMerge>
        </filter>
    </defs>
    <g id="Page-1" stroke="none" stroke-width="1" fill="none" fill-rule="evenodd" sketch:type="MSPage">
        <g id="Artboard-1-Copy-9" sketch:type="MSArtboardGroup" transform="translate(-805.000000, -54.000000)" filter="url(#filter-1)" fill="#71797F">
            <path d="M813.414214,60 L816.944907,56.4693066 C817.338692,56.0755211 817.340272,55.4407768 816.949747,55.0502525 C816.556501,54.6570056 815.923891,54.6618954 815.530693,55.055093 L812,58.5857864 L808.469307,55.055093 C808.075521,54.6613076 807.440777,54.6597282 807.050253,55.0502525 C806.657006,55.4434995 806.661895,56.076109 807.055093,56.4693066 L810.585786,60 L807.055093,63.5306934 C806.661308,63.9244789 806.659728,64.5592232 807.050253,64.9497475 C807.443499,65.3429944 808.076109,65.3381046 808.469307,64.944907 L812,61.4142136 L815.530693,64.944907 C815.924479,65.3386924 816.559223,65.3402718 816.949747,64.9497475 C817.342994,64.5565005 817.338105,63.923891 816.944907,63.5306934 L813.414214,60 Z" id="Rectangle-317-Copy-2" sketch:type="MSShapeGroup"></path>
        </g>
    </g>
</svg>