<?xml version="1.0" encoding="UTF-8" standalone="no"?>
<svg width="16px" height="14px" viewBox="0 0 16 14" version="1.1" xmlns="http://www.w3.org/2000/svg" xmlns:xlink="http://www.w3.org/1999/xlink" xmlns:sketch="http://www.bohemiancoding.com/sketch/ns">
    <!-- Generator: Sketch 3.3.3 (12081) - http://www.bohemiancoding.com/sketch -->
    <title>Rectangle 11 Copy 2</title>
    <desc>Created with Sketch.</desc>
    <defs>
        <filter x="-50%" y="-50%" width="200%" height="200%" filterUnits="objectBoundingBox" id="filter-1">
            <feOffset dx="0" dy="1" in="SourceAlpha" result="shadowOffsetOuter1"></feOffset>
            <feGaussianBlur stdDeviation="0.5" in="shadowOffsetOuter1" result="shadowBlurOuter1"></feGaussianBlur>
            <feColorMatrix values="0 0 0 0 1   0 0 0 0 1   0 0 0 0 1  0 0 0 0.7 0" in="shadowBlurOuter1" type="matrix" result="shadowMatrixOuter1"></feColorMatrix>
            <feMerge>
                <feMergeNode in="shadowMatrixOuter1"></feMergeNode>
                <feMergeNode in="SourceGraphic"></feMergeNode>
            </feMerge>
        </filter>
    </defs>
    <g id="Page-1" stroke="none" stroke-width="1" fill="none" fill-rule="evenodd" sketch:type="MSPage">
        <g id="Artboard-1-Copy-9" sketch:type="MSArtboardGroup" transform="translate(-989.000000, -55.000000)" filter="url(#filter-1)" fill="#71797F">
            <path d="M993.475528,60 L996.704655,56.7942246 C997.104158,56.3976107 997.114159,55.7622317 996.729199,55.377271 C996.334098,54.9821704 995.686887,54.9864323 995.290442,55.3800111 L990.379524,60.255416 C990.354306,60.276102 990.329875,60.2982131 990.306339,60.3217497 C990.03148,60.596608 989.951861,60.9883752 990.063729,61.3335863 C990.110701,61.4834202 990.194134,61.6249675 990.298052,61.7288855 C990.318023,61.7488561 990.338638,61.7678064 990.359832,61.7857376 L995.337692,66.739262 C995.732975,67.1326119 996.369602,67.1345091 996.760126,66.7439848 C997.153373,66.3507378 997.14697,65.718181 996.751906,65.3250484 L993.410522,62 L1003.0015,62 C1003.55251,62 1004,61.5522847 1004,61 C1004,60.4438648 1003.55296,60 1003.0015,60 L993.475528,60 L993.475528,60 Z M999,57 C999,56.4477153 999.443717,56 999.999807,56 L1003.00019,56 C1003.55237,56 1004,56.4438648 1004,57 C1004,57.5522847 1003.55628,58 1003.00019,58 L999.999807,58 C999.447629,58 999,57.5561352 999,57 Z M999,65 C999,64.4477153 999.443717,64 999.999807,64 L1003.00019,64 C1003.55237,64 1004,64.4438648 1004,65 C1004,65.5522847 1003.55628,66 1003.00019,66 L999.999807,66 C999.447629,66 999,65.5561352 999,65 Z" id="Rectangle-11-Copy-2" sketch:type="MSShapeGroup"></path>
        </g>
    </g>
</svg>