<?xml version="1.0" encoding="UTF-8" standalone="no"?>
<svg width="14px" height="14px" viewBox="0 0 14 14" version="1.1" xmlns="http://www.w3.org/2000/svg" xmlns:xlink="http://www.w3.org/1999/xlink" xmlns:sketch="http://www.bohemiancoding.com/sketch/ns">
    <!-- Generator: Sketch 3.3.3 (12081) - http://www.bohemiancoding.com/sketch -->
    <title>Shape Copy 3</title>
    <desc>Created with Sketch.</desc>
    <defs>
        <filter x="-50%" y="-50%" width="200%" height="200%" filterUnits="objectBoundingBox" id="filter-1">
            <feOffset dx="0" dy="1" in="SourceAlpha" result="shadowOffsetOuter1"></feOffset>
            <feGaussianBlur stdDeviation="0.5" in="shadowOffsetOuter1" result="shadowBlurOuter1"></feGaussianBlur>
            <feColorMatrix values="0 0 0 0 1   0 0 0 0 1   0 0 0 0 1  0 0 0 0.7 0" in="shadowBlurOuter1" type="matrix" result="shadowMatrixOuter1"></feColorMatrix>
            <feMerge>
                <feMergeNode in="shadowMatrixOuter1"></feMergeNode>
                <feMergeNode in="SourceGraphic"></feMergeNode>
            </feMerge>
        </filter>
    </defs>
    <g id="Page-1" stroke="none" stroke-width="1" fill="none" fill-rule="evenodd" sketch:type="MSPage">
        <g id="Artboard-1-Copy-9" sketch:type="MSArtboardGroup" transform="translate(-495.000000, -54.000000)" filter="url(#filter-1)" fill="#71797F">
            <g id="Shape-Copy-3" sketch:type="MSLayerGroup" transform="translate(496.000000, 54.000000)">
                <path d="M5,10 L5,10 C2.23857625,10 0,7.76142375 0,5 C0,2.23857625 2.23857625,0 5,0 C7.76142375,0 10,2.23857625 10,5 C10,7.76142375 7.76142375,10 5,10 L5,10 Z M5,8 C6.65685425,8 8,6.65685425 8,5 C8,3.34314575 6.65685425,2 5,2 C3.34314575,2 2,3.34314575 2,5 C2,6.65685425 3.34314575,8 5,8 Z M7.3417098,8.76425619 C6.95447765,8.37702404 6.95442379,7.74925053 7.34767075,7.35600357 C7.73819504,6.96547928 8.36862284,6.9627421 8.75592336,7.35004263 L11.7175927,10.311712 C12.1048249,10.6989441 12.1048787,11.3267176 11.7116318,11.7199646 C11.3211075,12.1104889 10.6906797,12.1132261 10.3033792,11.7259255 L7.3417098,8.76425619 Z" sketch:type="MSShapeGroup"></path>
            </g>
        </g>
    </g>
</svg>