<svg width="34" height="34" viewBox="0 0 34 34" xmlns="http://www.w3.org/2000/svg"><title>Oval 272 + Oval 273</title><g fill="none" fill-rule="evenodd"><circle fill="#43BAFA" cx="17" cy="17" r="17"/><path d="M13.624 12.27c-.537-.18-1.07-.27-1.624-.27-2.76 0-5 2.24-5 5s2.24 5 5 5c.654 0 1.054-.063 1.852-.354.8-.292 1.466-1.646 3.126-1.646 1.312 0 2.532 1.4 2.998 1.573.62.275 1.304.427 2.024.427 2.76 0 5-2.24 5-5s-2.24-5-5-5c-.56 0-1.097.092-1.6.26.007-.008-.042.013-.132.048l-.1.038C19.63 12.548 18.28 14 16.978 14c-1.19 0-2.42-1.385-3.02-1.603-.11-.046-.22-.09-.334-.127z" fill="#FFF"/></g></svg>