<?xml version="1.0" encoding="UTF-8" standalone="no"?>
<svg width="5px" height="8px" viewBox="0 0 5 8" version="1.1" xmlns="http://www.w3.org/2000/svg" xmlns:xlink="http://www.w3.org/1999/xlink" xmlns:sketch="http://www.bohemiancoding.com/sketch/ns">
    <!-- Generator: Sketch 3.3.3 (12081) - http://www.bohemiancoding.com/sketch -->
    <title>Rectangle 11 + Rectangle 11 Copy 29</title>
    <desc>Created with Sketch.</desc>
    <defs></defs>
    <g id="Page-1" stroke="none" stroke-width="1" fill="none" fill-rule="evenodd" sketch:type="MSPage">
        <g id="Artboard-1-Copy-9" sketch:type="MSArtboardGroup" transform="translate(-564.000000, -306.000000)" fill="#E6E6E6">
            <g id="Rectangle-11-+-Rectangle-11-Copy-29" sketch:type="MSLayerGroup" transform="translate(566.500000, 310.000000) rotate(-90.000000) translate(-566.500000, -310.000000) translate(562.000000, 307.000000)">
                <path d="M4.5,0.586761547 C4.21790313,0.56169218 3.92862274,0.657163697 3.71362774,0.872158696 L0.872158696,3.71362774 C0.490460483,4.09532595 0.488155365,4.73079605 0.878679656,5.12132034 C1.27192661,5.5145673 1.89944939,5.51476417 2.28637226,5.1278413 L4.5,2.91421356 L6.71362774,5.1278413 C7.10055061,5.51476417 7.72807339,5.5145673 8.12132034,5.12132034 C8.51184464,4.73079605 8.50953952,4.09532595 8.1278413,3.71362774 L5.28637226,0.872158696 C5.07137726,0.657163697 4.78209687,0.56169218 4.5,0.586761547 Z" id="Rectangle-11-Copy-2" sketch:type="MSShapeGroup" transform="translate(4.500000, 3.000000) scale(1, -1) translate(-4.500000, -3.000000) "></path>
            </g>
        </g>
    </g>
</svg>